<?xml version="1.0" encoding="UTF-8" standalone="no"?>
<!-- Created with Inkscape (http://www.inkscape.org/) -->

<svg
   xmlns:dc="http://purl.org/dc/elements/1.1/"
   xmlns:cc="http://creativecommons.org/ns#"
   xmlns:rdf="http://www.w3.org/1999/02/22-rdf-syntax-ns#"
   xmlns:svg="http://www.w3.org/2000/svg"
   xmlns="http://www.w3.org/2000/svg"
   xmlns:sodipodi="http://sodipodi.sourceforge.net/DTD/sodipodi-0.dtd"
   xmlns:inkscape="http://www.inkscape.org/namespaces/inkscape"
   width="350"
   height="250"
   viewBox="0 0 350 250"
   version="1.1"
   id="svg8"
   inkscape:version="0.92.4 (5da689c313, 2019-01-14)"
   sodipodi:docname="azure.svg">
  <defs
     id="defs2" />
  <sodipodi:namedview
     id="base"
     pagecolor="#ffffff"
     bordercolor="#666666"
     borderopacity="1.0"
     inkscape:pageopacity="0.0"
     inkscape:pageshadow="2"
     inkscape:zoom="1.6311517"
     inkscape:cx="57.772848"
     inkscape:cy="80.451965"
     inkscape:document-units="mm"
     inkscape:current-layer="layer1-1"
     showgrid="false"
     inkscape:pagecheckerboard="true"
     fit-margin-top="0"
     fit-margin-left="0"
     fit-margin-right="0"
     fit-margin-bottom="0"
     inkscape:window-width="2025"
     inkscape:window-height="781"
     inkscape:window-x="429"
     inkscape:window-y="1396"
     inkscape:window-maximized="0" />
  <metadata
     id="metadata5">
    <rdf:RDF>
      <cc:Work
         rdf:about="">
        <dc:format>image/svg+xml</dc:format>
        <dc:type
           rdf:resource="http://purl.org/dc/dcmitype/StillImage" />
        <dc:title />
      </cc:Work>
    </rdf:RDF>
  </metadata>
  <g
     inkscape:label="Layer 1"
     inkscape:groupmode="layer"
     id="layer1"
     transform="translate(677.9313,-313.85407)">
    <g
       transform="matrix(0.03978217,0,0,0.03978217,-658.51488,317.36166)"
       id="layer1-1"
       inkscape:label="Layer 1">
      <path
         inkscape:connector-curvature="0"
         id="path21"
         d="m 3607.6509,5860.451 c 1042.3718,-184.1373 1903.3115,-336.5108 1913.1995,-338.6077 l 17.9784,-3.8128 -984.1018,-1170.558 c -541.2555,-643.807 -984.1011,-1173.0544 -984.1011,-1176.1053 0,-5.7761 1016.168,-2804.08363 1021.8807,-2814.03903 1.91,-3.3285 693.4432,1190.58483 1676.3219,2894.12443 920.1891,1594.8846 1678.8403,2909.8725 1685.8917,2922.195 l 12.8215,22.4048 -3127.5563,-0.4034 -3127.5558,-0.4018 1895.2213,-334.7951 z M -145.76681,5503.4872 c 0,-1.6481 463.70394,-806.6018 1030.4532,-1788.7866 L 1915.1394,1928.91 3116.0133,921.13427 C 3776.494,366.85787 4318.6657,-87.319028 4320.8395,-88.147128 c 2.1736,-0.8282 -6.5148,21.0397 -19.3077,48.5952 -12.7931,27.5558 -599.5839,1286.160828 -1303.9802,2796.899928 l -1280.7197,2746.7981 -931.29936,1.1676 c -512.21454,0.6428 -931.29935,-0.1804 -931.29935,-1.8272 z"
         style="fill:#0089d6;fill-opacity:1;stroke-width:4.62813473"
         sodipodi:nodetypes="cccsscscccccccscscsscccc" />
    </g>
  </g>
</svg>
