<?xml version="1.0" encoding="UTF-8" standalone="no"?>
<svg
   xmlns:dc="http://purl.org/dc/elements/1.1/"
   xmlns:cc="http://creativecommons.org/ns#"
   xmlns:rdf="http://www.w3.org/1999/02/22-rdf-syntax-ns#"
   xmlns:svg="http://www.w3.org/2000/svg"
   xmlns="http://www.w3.org/2000/svg"
   xmlns:sodipodi="http://sodipodi.sourceforge.net/DTD/sodipodi-0.dtd"
   xmlns:inkscape="http://www.inkscape.org/namespaces/inkscape"
   id="Layer_1"
   viewBox="0 0 250 250"
   version="1.1"
   sodipodi:docname="snipcart.svg"
   width="250"
   height="250"
   inkscape:version="0.92.4 (5da689c313, 2019-01-14)">
  <metadata
     id="metadata13">
    <rdf:RDF>
      <cc:Work
         rdf:about="">
        <dc:format>image/svg+xml</dc:format>
        <dc:type
           rdf:resource="http://purl.org/dc/dcmitype/StillImage" />
      </cc:Work>
    </rdf:RDF>
  </metadata>
  <defs
     id="defs11" />
  <sodipodi:namedview
     pagecolor="#ffffff"
     bordercolor="#666666"
     borderopacity="1"
     objecttolerance="10"
     gridtolerance="10"
     guidetolerance="10"
     inkscape:pageopacity="0"
     inkscape:pageshadow="2"
     inkscape:window-width="2441"
     inkscape:window-height="849"
     id="namedview9"
     showgrid="false"
     inkscape:zoom="1.1672862"
     inkscape:cx="-180.79512"
     inkscape:cy="108.46476"
     inkscape:window-x="503"
     inkscape:window-y="1292"
     inkscape:window-maximized="0"
     inkscape:current-layer="Layer_1" />
  <style
     id="style2">.st0{fill:#f6e767}.st1{fill:#fff}</style>
  <path
     class="st0"
     d="M 222.82692,52.59796 137.64805,3.19421 c -7.6661,-4.25895 -19.59114,-4.25895 -27.25724,0 L 25.211931,52.59796 C 18.397621,57.70869 12.4351,67.93015 12.4351,76.44804 v 97.95571 c 0,8.51788 5.962521,18.73935 13.62862,22.99829 l 85.17888,49.40375 c 7.66609,4.25895 19.59114,4.25895 27.25724,0 l 85.17887,-49.40375 c 7.6661,-4.25894 13.62862,-14.48041 13.62862,-22.99829 V 76.44804 c -0.85179,-8.51789 -6.81431,-18.73935 -14.48041,-23.85008 z m -22.99829,53.66269 h -8.51789 v -15.3322 c 0,-11.07325 -8.51789,-15.3322 -25.55366,-15.3322 h -0.85179 c -40.88586,0 -37.47871,-15.3322 -38.3305,-21.29472 H 125.723 c -0.85178,5.96252 2.55537,21.29472 -38.330489,21.29472 h -0.851789 c -17.035775,0 -25.553663,3.40716 -25.553663,15.3322 v 11.92504 l 138.841571,40.03407 v 17.03578 c 0,16.18398 -7.6661,25.55366 -34.92334,25.55366 h -1.70358 c -20.44293,0 -34.07155,4.25895 -34.07155,21.29472 h -8.51789 c 0,-16.18399 -12.77683,-21.29472 -34.071548,-21.29472 -26.405452,0 -34.923339,-9.36968 -34.923339,-25.55366 v -14.48041 h 8.517887 v 15.3322 c 0,11.07325 8.517888,15.33219 25.553663,15.33219 h 0.851789 c 40.885858,0 37.478708,15.3322 38.330498,21.29472 h 0.85178 c 0.85179,-5.96252 -2.55536,-21.29472 38.3305,-21.29472 h 1.70358 c 17.03577,0 25.55366,-3.40715 25.55366,-15.33219 v -8.51789 L 51.617383,111.37138 V 91.78024 c 0,-16.18399 7.666099,-25.55366 34.923339,-25.55366 h 1.703577 c 21.294721,0 34.071551,-4.25895 34.071551,-21.29472 h 8.51789 c 0,16.18398 12.77683,21.29472 34.07155,21.29472 h 0.85179 c 26.40545,0 34.92334,9.36967 34.92334,25.55366 z"
     id="path4"
     inkscape:connector-curvature="0"
     style="fill:#f6e767;stroke-width:8.51788712" />
</svg>
